<?xml version="1.0" encoding="UTF-8" standalone="no"?>
<svg
   xmlns:dc="http://purl.org/dc/elements/1.1/"
   xmlns:cc="http://creativecommons.org/ns#"
   xmlns:rdf="http://www.w3.org/1999/02/22-rdf-syntax-ns#"
   xmlns:svg="http://www.w3.org/2000/svg"
   xmlns="http://www.w3.org/2000/svg"
   xmlns:sodipodi="http://sodipodi.sourceforge.net/DTD/sodipodi-0.dtd"
   xmlns:inkscape="http://www.inkscape.org/namespaces/inkscape"
   inkscape:version="1.0 (4035a4fb49, 2020-05-01)"
   inkscape:export-ydpi="196.881"
   inkscape:export-xdpi="196.881"
   inkscape:export-filename="C:\Users\austi\Documents\Code\______Projects\2020-9-16 Scripture Memorization\banner.png"
   sodipodi:docname="banner.svg"
   version="1.1"
   viewBox="0 0 2459.6519 1285.9312"
   height="1285.9313"
   width="2459.6519"
   data-name="Layer 1"
   id="a5ea60a6-7e3a-43b2-b481-a6d571d01698">
  <metadata
     id="metadata1065">
    <rdf:RDF>
      <cc:Work
         rdf:about="">
        <dc:format>image/svg+xml</dc:format>
        <dc:type
           rdf:resource="http://purl.org/dc/dcmitype/StillImage" />
      </cc:Work>
    </rdf:RDF>
  </metadata>
  <defs
     id="defs1063" />
  <sodipodi:namedview
     inkscape:current-layer="a5ea60a6-7e3a-43b2-b481-a6d571d01698"
     inkscape:window-maximized="1"
     inkscape:window-y="-9"
     inkscape:window-x="-9"
     inkscape:cy="808.73324"
     inkscape:cx="636.63028"
     inkscape:zoom="0.28875117"
     showgrid="false"
     id="namedview1061"
     inkscape:window-height="1001"
     inkscape:window-width="1920"
     inkscape:pageshadow="2"
     inkscape:pageopacity="0"
     guidetolerance="10"
     gridtolerance="10"
     objecttolerance="10"
     borderopacity="1"
     bordercolor="#666666"
     pagecolor="#ffffff" />
  <title
     id="title974">reading</title>
  <rect
     y="0"
     x="0"
     height="1285.9313"
     width="2459.6519"
     id="rect1067"
     style="fill:#ffffff;fill-opacity:1;stroke:none;stroke-width:11.3386;stroke-linejoin:round;stroke-opacity:1" />
  <ellipse
     id="ellipse976"
     fill="#3f3d56"
     ry="32.5"
     rx="259"
     cy="920.64038"
     cx="1233.8981" />
  <path
     id="path978"
     fill="#f2f2f2"
     d="m 1672.0235,642.7528 -100.1254,47.38757 88.6153,-66.2619 a 500.05681,500.05681 0 0 0 -48.3838,-63.66846 l -434.2315,107.93036 392.2334,-149.62353 a 499.98032,499.98032 0 0 0 -56.9576,-43.41419 L 851.50738,581.6798 A 495.88,495.88 0 0 0 742.90448,891.14037 H 1738.8917 A 495.61329,495.61329 0 0 0 1672.0235,642.7528 Z" />
  <path
     id="path980"
     fill="#f2f2f2"
     d="m 1459.0213,444.33574 a 495.97179,495.97179 0 0 0 -218.1232,-50.19537 c -153.8296,0 -291.36136,69.75269 -382.7103,179.34869 156.4264,-34.27447 428.7772,-93.60553 600.8335,-129.15332 z" />
  <circle
     id="circle982"
     opacity="0.4"
     fill="#6c63ff"
     r="14.92017"
     cy="477.30423"
     cx="1556.9779" />
  <circle
     id="circle984"
     opacity="0.4"
     fill="#6c63ff"
     r="10.46639"
     cy="484.43027"
     cx="1529.3645" />
  <circle
     id="circle986"
     opacity="0.4"
     fill="#6c63ff"
     r="31.2479"
     cy="516.84204"
     cx="850.65021" />
  <circle
     id="circle988"
     opacity="0.4"
     fill="#6c63ff"
     r="21.92017"
     cy="531.76642"
     cx="792.8183" />
  <rect
     x="731.89813"
     id="rect990"
     fill="#2f2e41"
     height="2"
     width="1020"
     y="890.14038" />
  <path
     id="path992"
     fill="#3f3d56"
     d="m 1636.3391,890.14037 -79.441,-118 c 0,0 120.3071,42 106.6535,118 z" />
  <path
     id="path994"
     fill="#6c63ff"
     d="m 1639.4572,890.14037 79.4409,-118 c 0,0 -120.3071,42 -106.6535,118 z" />
  <path
     id="path996"
     fill="#f2f2f2"
     d="m 939.89813,351.7151 c 0,-6.49686 -9.2638,-11.76359 -20.69132,-11.76359 -0.22617,0 -0.44993,0.006 -0.67436,0.01 -3.44726,-10.56733 -19.74316,-18.57 -39.32885,-18.57 -16.66388,0 -30.94586,5.79338 -36.96,14.03014 a 52.407,52.407 0 0 0 -13.61878,-1.74372 c -17.52218,-3.4e-4 -31.72669,8.07537 -31.72669,18.03717 0,9.04918 11.72185,16.54056 27.00353,17.83751 11.10464,2.03037 28.45034,3.337 47.945,3.337 33.09671,0 57.3139,-6.31342 57.92127,-11.059 6.06451,-2.05103 10.1302,-5.81258 10.1302,-10.11551 z" />
  <path
     id="path998"
     fill="#f2f2f2"
     d="m 1439.8981,356.7151 c 0,-6.49686 -9.2638,-11.76359 -20.6913,-11.76359 -0.2262,0 -0.4499,0.006 -0.6743,0.01 -3.4473,-10.56733 -19.7432,-18.57 -39.3289,-18.57 -16.6639,0 -30.9459,5.79338 -36.96,14.03014 a 52.407,52.407 0 0 0 -13.6188,-1.74372 c -17.5222,-3.4e-4 -31.7267,8.07537 -31.7267,18.03717 0,9.04918 11.7219,16.54056 27.0036,17.83751 11.1046,2.03037 28.4503,3.337 47.945,3.337 33.0967,0 57.3139,-6.31342 57.9212,-11.059 6.0645,-2.05103 10.1302,-5.81258 10.1302,-10.11551 z" />
  <path
     id="path1000"
     fill="#f2f2f2"
     d="m 1718.8981,272.17014 c 0,-11.40358 -16.2602,-20.648 -36.3183,-20.648 -0.397,0 -0.7898,0.01 -1.1837,0.017 -6.0508,-18.54826 -34.6541,-32.59493 -69.0317,-32.59493 -29.2492,0 -54.3176,10.16878 -64.8739,24.62632 a 91.9875,91.9875 0 0 0 -23.9043,-3.06065 c -30.7557,0 -55.6881,14.17477 -55.6881,31.66024 0,15.88353 20.5748,29.03273 47.3978,31.30919 19.4914,3.5638 49.9374,5.85718 84.1553,5.85718 58.0928,0 100.5999,-11.0816 101.666,-19.41123 10.6446,-3.59996 17.7809,-10.20242 17.7809,-17.75512 z" />
  <path
     id="path1002"
     fill="#2f2e41"
     d="m 1302.068,508.8516 c -20.6846,-34.95054 -61.6074,-36.57939 -61.6074,-36.57939 0,0 -39.8769,-5.09942 -65.4577,48.13068 -23.8434,49.61483 -56.7502,97.519 -5.2978,109.13343 l 9.2938,-28.9265 5.7556,31.08 a 201.31948,201.31948 0 0 0 22.0146,0.37625 c 55.1015,-1.779 107.5773,0.52048 105.8876,-19.25223 -2.2461,-26.28498 9.314,-70.33284 -10.5887,-103.96224 z" />
  <path
     id="path1004"
     fill="#2f2e41"
     d="m 1166.7673,814.93012 a 81.59233,81.59233 0 0 1 -2.6386,11.35859 c -1.2943,3.63968 -3.2927,7.00569 -4.4762,10.68291 -3.7724,11.72135 1.4573,24.79036 9.8099,33.83772 a 55.21673,55.21673 0 0 0 26.9213,15.9859 c 7.5352,1.89512 15.37,2.16788 23.1353,2.4312 21.5027,0.72916 43.5587,1.38151 63.9338,-5.5289 a 111.08156,111.08156 0 0 0 18.5746,-8.43834 13.90664,13.90664 0 0 0 4.8198,-3.795 c 1.554,-2.21241 1.7528,-5.08172 1.7392,-7.78532 -0.046,-9.11556 -1.8937,-18.18463 -1.4549,-27.28974 0.243,-5.04331 1.1869,-10.08271 0.7222,-15.11045 a 27.8756,27.8756 0 0 0 -21.3039,-24.01211 c -5.78,-1.2412 -11.775,-0.56486 -17.6595,9.5e-4 a 450.26334,450.26334 0 0 1 -45.9596,2.055 c -15.6785,-0.10007 -31.2602,-2.49338 -46.8607,-2.74333 -4.6135,-0.0739 -4.5203,1.34838 -5.9891,5.81341 a 108.7667,108.7667 0 0 0 -3.3136,12.53751 z" />
  <path
     id="path1006"
     fill="#ffb8b8"
     d="m 1211.2617,589.84464 c -0.7535,3.9451 -1.5678,8.0345 -3.9386,11.27655 -2.7277,3.73008 -7.175,5.86135 -10.1094,9.4311 -4.4168,5.37321 -4.6704,12.93418 -4.6886,19.88971 -0.017,6.40757 0.1134,13.24193 3.6866,18.5607 2.319,3.45191 5.8477,5.872 9.2963,8.196 13.4002,9.03061 27.8806,18.22335 44.0371,18.52117 6.6942,0.12339 13.8719,-1.6054 18.2766,-6.64783 a 27.442,27.442 0 0 0 4.425,-7.89466 104.83543,104.83543 0 0 0 7.421,-31.91454 c 0.3679,-5.157 0.3327,-10.46448 -1.4127,-15.33108 -1.9628,-5.47232 -5.9314,-9.97494 -8.5543,-15.1633 a 33.75668,33.75668 0 0 1 -3.2491,-19.97556 2.15614,2.15614 0 0 0 -0.114,-1.44765 2.10871,2.10871 0 0 0 -1.7378,-0.70415 l -32.0356,-2.3062 a 69.71286,69.71286 0 0 1 -8.8947,-1.01754 c -1.727,-0.35115 -6.2882,-2.80383 -7.9349,-2.15164 -3.0482,1.20727 -3.8481,15.40741 -4.4729,18.67892 z" />
  <path
     id="path1008"
     opacity="0.1"
     d="m 1211.2617,589.84464 c -0.7535,3.9451 -1.5678,8.0345 -3.9386,11.27655 -2.7277,3.73008 -7.175,5.86135 -10.1094,9.4311 -4.4168,5.37321 -4.6704,12.93418 -4.6886,19.88971 -0.017,6.40757 0.1134,13.24193 3.6866,18.5607 2.319,3.45191 5.8477,5.872 9.2963,8.196 13.4002,9.03061 27.8806,18.22335 44.0371,18.52117 6.6942,0.12339 13.8719,-1.6054 18.2766,-6.64783 a 27.442,27.442 0 0 0 4.425,-7.89466 104.83543,104.83543 0 0 0 7.421,-31.91454 c 0.3679,-5.157 0.3327,-10.46448 -1.4127,-15.33108 -1.9628,-5.47232 -5.9314,-9.97494 -8.5543,-15.1633 a 33.75668,33.75668 0 0 1 -3.2491,-19.97556 2.15614,2.15614 0 0 0 -0.114,-1.44765 2.10871,2.10871 0 0 0 -1.7378,-0.70415 l -32.0356,-2.3062 a 69.71286,69.71286 0 0 1 -8.8947,-1.01754 c -1.727,-0.35115 -6.2882,-2.80383 -7.9349,-2.15164 -3.0482,1.20727 -3.8481,15.40741 -4.4729,18.67892 z" />
  <circle
     id="circle1010"
     fill="#ffb8b8"
     r="47"
     cy="547.14038"
     cx="1241.8981" />
  <path
     id="path1012"
     fill="#d0cde1"
     d="m 1217.8537,652.40903 c 2.4496,2.56043 5.0453,5.09564 8.2553,6.59659 a 25.94016,25.94016 0 0 0 10.3132,1.96365 c 8.4722,0.23832 17.6567,-1.31407 23.5503,-7.405 7.5973,-7.85152 7.347,-20.5153 13.302,-29.67516 a 6.61046,6.61046 0 0 1 1.9189,-2.09865 6.22017,6.22017 0 0 1 3.2638,-0.7504 c 7.5209,-0.0703 14.0724,4.80755 19.985,9.45614 2.6487,2.08246 5.3633,4.23989 7.0343,7.16566 a 24.28738,24.28738 0 0 1 2.3722,7.26441 c 2.9341,14.32315 3.8843,28.96808 4.8274,43.55822 0.5209,8.05879 1.0421,16.12534 1.0034,24.20086 -0.1276,26.60541 -6.3115,52.76588 -12.461,78.65115 -0.7924,3.33532 -1.8767,7.06341 -4.9099,8.661 a 12.107,12.107 0 0 1 -4.2842,1.04567 c -17.6135,2.06856 -35.2633,4.13962 -52.9957,4.41272 q -10.38,0.15987 -20.751,-0.50253 a 11.17843,11.17843 0 0 1 -3.4956,-0.60939 9.85754,9.85754 0 0 1 -3.8109,-3.23626 c -9.5917,-12.08676 -10.1578,-28.79689 -10.0965,-44.22693 q 0.2248,-56.58768 4.0436,-113.08493 c 0.2102,-3.10882 0.2561,-6.88444 -1.984,-9.33 4.0334,6.45705 9.6435,12.42866 14.9194,17.94318 z" />
  <path
     id="path1014"
     fill="#6c63ff"
     d="m 1207.8981,598.14037 c -1.5874,2.87347 -13.2906,10.0088 -15.55,12.39037 -12.6238,13.3062 -35.664,12.8069 -47.2093,27.0589 -4.062,5.01431 -6.1724,11.31471 -7.7246,17.57843 -2.1952,8.85894 -3.3674,18.52042 0.31,26.87363 3.5385,8.03766 10.9875,13.59445 16.0449,20.77415 5.553,7.88321 8.0497,17.45505 10.4424,26.79611 1.7666,6.8971 3.5479,13.965 2.8599,21.05148 -0.7823,8.05713 -4.6812,15.43462 -6.9833,23.19541 -2.302,7.76079 -2.6993,17.004 2.6233,23.10307 3.9104,4.4808 10.0439,6.25715 15.9065,7.25643 a 182.74446,182.74446 0 0 0 22.6717,1.97368 c 6.7017,0.2961 14.089,0.35367 19.241,-3.94264 4.0651,-3.39 5.832,-8.89114 6.0607,-14.17937 0.2287,-5.28823 -0.8716,-10.52963 -1.5608,-15.77774 -0.7144,-5.44045 -0.989,-10.9283 -1.2187,-16.41065 q -1.5461,-36.89792 -0.4219,-73.84327 c 0.1561,-5.12521 0.3454,-10.31336 -0.7474,-15.32313 -1.4373,-6.5887 -4.9982,-12.477 -7.9694,-18.53076 -5.8976,-12.01606 -8.6866,-23.68875 -7.775,-37.0441 0.8999,-13.18231 6.6487,-23.22528 1,-13 z" />
  <path
     id="path1016"
     fill="#6c63ff"
     d="m 1273.8981,599.14037 c 2.4179,2.48505 10.6338,3.30428 13.7096,4.90469 a 48.03632,48.03632 0 0 0 9.0122,3.12032 117,117 0 0 1 31.6598,14.53071 19.214,19.214 0 0 1 5.2944,4.5731 c 1.7207,2.39375 2.3453,5.38064 2.9286,8.27037 1.506,7.46012 3.0196,15.01018 2.6812,22.61327 -0.3592,8.0706 -2.7903,15.887 -5.202,23.59719 l -9.0113,28.80928 c -6.7263,21.50411 -13.4953,43.21993 -15.388,65.67185 a 154.47715,154.47715 0 0 0 1.3865,37.29915 c 0.198,1.23973 0.3642,2.66079 -0.4545,3.61263 a 3.55808,3.55808 0 0 1 -2.2067,1.01536 c -4.3493,0.68006 -8.5583,-1.53755 -12.4988,-3.49982 a 138.40992,138.40992 0 0 0 -38.1552,-12.48464 88.70243,88.70243 0 0 0 11.8509,-24.42987 147.8524,147.8524 0 0 0 3.5805,-16.8013 l 4.192,-24.24515 a 238.23887,238.23887 0 0 0 3.596,-26.81113 33.56415,33.56415 0 0 0 -0.5835,-10.09976 48.995,48.995 0 0 0 -3.8286,-9.10817 c -6.9086,-14.37055 -10.1501,-30.76992 -7.4318,-46.48144 1.1896,-6.87583 3.5013,-13.76086 2.5373,-20.67192 -0.9268,-6.64471 0.036,-11.80881 -1.6684,-18.38472 -7.0002,-27 -0.549,-9.67517 3.9998,-5 z" />
  <path
     id="path1018"
     fill="#6c63ff"
     d="m 1145.0193,660.31064 c -3.1496,6.53574 -8.4151,12.10359 -10.2072,19.13379 a 41.80169,41.80169 0 0 0 -0.89,10.00043 c -0.043,5.05966 -0.07,10.22192 1.4835,15.03733 1.0003,3.1002 2.6276,5.95927 3.7999,8.99858 a 32.62833,32.62833 0 0 1 2.1373,13.33147 c -0.3163,6.29555 -2.455,12.40665 -2.6222,18.70793 -0.2628,9.90929 4.3205,19.22484 8.7927,28.07142 a 20.63627,20.63627 0 0 1 29.9957,-9.82022 c 1.1798,-1.08956 1.3058,-2.87874 1.352,-4.484 q 0.4958,-17.24446 0.9566,-34.48991 c 0.4841,-17.78081 0.9453,-35.79922 -3.145,-53.10995 -1.8468,-7.81584 -4.7203,-15.60148 -9.9881,-21.66364 -2.7738,-3.192 -12.1901,-11.59994 -16.7434,-8.024 -2.0476,1.6081 -1.569,5.98554 -1.8935,8.20217 a 34.79828,34.79828 0 0 1 -3.0283,10.1086 z" />
  <path
     id="path1020"
     fill="#6c63ff"
     d="m 1340.1046,641.4762 c 1.4896,4.63871 1.5787,9.59525 1.6084,14.46719 q 0.091,14.90735 -0.3952,29.81076 c -0.1658,5.08639 -0.3942,10.24286 -1.9364,15.09264 -1.0171,3.19837 -2.5867,6.19763 -3.6371,9.38522 -3.148,9.553 -1.428,19.91418 -1.1581,29.9689 a 34.05159,34.05159 0 0 1 -0.8247,9.69448 c -1.6613,6.23314 -6.126,11.26971 -9.2421,16.91788 -2.9595,5.36422 -4.7452,11.37692 -8.2798,16.38092 -3.5346,5.004 -9.6533,8.96906 -15.584,7.4329 -4.4936,-1.16394 -7.6866,-5.14144 -9.8952,-9.22428 a 45.2439,45.2439 0 0 1 -4.6779,-29.34817 c 2.2173,-12.20357 9.3856,-23.02973 11.9708,-35.16069 3.5501,-16.6585 -1.8454,-33.84876 -1.6849,-50.88057 a 24.59406,24.59406 0 0 1 1.0722,-7.88708 c 1.356,-3.8904 4.2684,-6.99717 6.9589,-10.11731 a 127.73672,127.73672 0 0 0 9.3526,-12.27427 c 1.9261,-2.87257 4.5421,-10.26079 7.957,-10.8751 7.6242,-1.37153 16.5039,10.72629 18.3955,16.61658 z" />
  <path
     id="path1022"
     fill="#2f2e41"
     d="m 1105.4586,807.5215 a 46.39142,46.39142 0 0 0 -12.9047,-1.37183 32.20806,32.20806 0 0 0 -29.9022,37.96856 54.09778,54.09778 0 0 0 5.1136,13.97318 c 3.4223,6.94528 7.527,13.87462 13.8626,18.32532 3.7062,2.60355 7.9957,4.22683 12.2342,5.82355 l 33.3687,12.57057 c 4.9089,1.84927 9.8186,3.69881 14.7761,5.41356 a 289.01937,289.01937 0 0 0 77.1772,15.343 c 8.0124,0.47712 16.1461,0.60989 23.9627,-1.21423 1.8549,-0.43288 3.8336,-1.07818 4.9075,-2.65132 a 8.40487,8.40487 0 0 0 1.0965,-3.62168 l 2.0533,-14.37463 c 0.2892,-2.024 0.5673,-4.15447 -0.1745,-6.05972 -0.9406,-2.41584 -3.2984,-3.93557 -5.5465,-5.22676 -21.9375,-12.59985 -47.5523,-19.55109 -66.0174,-36.84417 -4.347,-4.07107 -7.9847,-10.52413 -13.2663,-13.28952 -5.9892,-3.13593 -13.0426,-4.92571 -19.2333,-7.81542 -13.5336,-6.31727 -26.8397,-13.57677 -41.5075,-16.94846 z" />
  <path
     id="path1024"
     opacity="0.1"
     d="m 1138.7724,826.90058 c 11.7944,3.69572 61.5905,29.30012 70.1257,38.23979 -1.144,0.41219 -39.961,-21.34142 -41.1257,-21.691 -10.5876,-3.17755 -21.234,-6.37595 -31.2885,-11.02616 -2.0227,-0.9355 -13.1405,-5.33257 -12.637,-7.88464 0.5681,-2.87982 12.8317,1.70591 14.9255,2.36201 z" />
  <path
     id="path1026"
     fill="#ffb8b8"
     d="m 1285.9153,923.02249 a 2.77052,2.77052 0 0 0 1.8697,-0.55026 2.8879,2.8879 0 0 0 0.5845,-2.15155 q -0.028,-9.79168 -0.055,-19.58335 c -5.6315,-2.68309 -11.9306,-3.54312 -18.1136,-4.36957 l -28.8486,-3.85608 c 0.6628,0.0886 -4.5107,12.42534 -3.7174,14.07234 1.3981,2.90284 12.0827,5.47555 15.0982,6.84615 10.4828,4.76468 21.3757,10.00288 33.1822,9.59232 z" />
  <path
     id="path1028"
     fill="#ffb8b8"
     d="m 1195.4031,900.66956 c -5.4468,0.86756 -11.5263,1.63445 -15.0538,5.8745 -4.4733,5.37695 -2.569,13.39264 -0.435,20.05362 a 8.635,8.635 0 0 0 1.8555,3.649 c 1.4563,1.43667 3.688,1.64716 5.7296,1.77644 4.9674,0.31454 10.2538,0.561 14.5941,-1.8756 a 63.96587,63.96587 0 0 0 5.6692,-4.214 36.34812,36.34812 0 0 1 10.4234,-4.76541 105.40148,105.40148 0 0 1 20.9231,-4.31189 32.54116,32.54116 0 0 0 8.2424,-1.45295 c 2.6189,-0.98647 5.0439,-2.94254 5.8047,-5.63567 1.0053,-3.55885 -1.063,-7.18723 -3.0468,-10.30832 -2.4711,-3.88793 -5.0891,-7.9817 -8.7737,-10.84384 -5.3754,-4.17552 -8.0345,-0.97015 -13.4491,1.70186 a 114.10822,114.10822 0 0 1 -32.4836,10.35226 z" />
  <path
     id="path1030"
     fill="#2f2e41"
     d="m 1181.1688,905.57583 -34.5857,-10.22233 c -4.2063,-1.24323 -8.4844,-2.49733 -12.8706,-2.49408 -4.3861,0.003 -8.9752,1.4414 -11.8198,4.78 -2.6819,3.14761 -3.4495,7.44952 -4.1181,11.53031 l -1.4302,8.72942 c -0.7268,4.43619 -1.4549,8.9577 -0.8007,13.40518 0.6541,4.44748 2.9245,8.8908 6.8707,11.0438 4.786,2.61115 10.6519,1.33578 15.9933,0.24359 a 174.121,174.121 0 0 1 32.7751,-3.51465 c 4.1397,-0.0495 8.4818,0.002 12.1398,-1.93638 4.3483,-2.30455 6.9497,-7.1774 7.397,-12.07825 0.6805,-7.45685 -1.8049,-17.19714 -9.5508,-19.48661 z" />
  <path
     id="path1032"
     fill="#2f2e41"
     d="m 1299.5104,896.66771 c 4.4836,-0.7858 8.4405,-3.334 12.7367,-4.838 6.0471,-2.11708 12.6002,-2.11705 19.0071,-2.09367 2.352,0.009 4.8567,0.0613 6.8145,1.36473 2.8221,1.87884 3.5454,5.63881 4.0253,8.995 l 2.8952,20.24962 c 0.5446,3.80874 1.086,7.71939 0.2366,11.47194 -0.8494,3.75255 -3.4073,7.37019 -7.131,8.33824 -4.5225,1.17574 -8.9561,-1.71327 -13.2262,-3.61107 -10.6729,-4.74341 -23.0795,-3.531 -34.208,-7.07631 -2.0652,-0.65793 -4.277,-1.664 -5.1195,-3.661 a 8.32987,8.32987 0 0 1 -0.3983,-3.49928 c 0.1906,-6.50883 -1.1822,-15.39675 0.7774,-21.61735 1.7623,-5.59433 8.5855,-4.02285 13.5902,-4.02285 z" />
  <path
     id="path1034"
     fill="#2f2e41"
     d="m 1372.7013,799.37107 a 60.05931,60.05931 0 0 1 21.157,-1.4455 c 5.6561,0.62312 11.4836,2.197 15.6132,6.11184 5.0262,4.76494 6.6412,12.134 6.776,19.05863 a 59.5434,59.5434 0 0 1 -12.9419,38.027 34.50425,34.50425 0 0 1 -7.3991,7.12284 48.70264,48.70264 0 0 1 -9.6268,4.63914 l -74.7278,29.47483 c -19.6592,7.75419 -39.3879,15.53083 -59.8935,20.64278 a 4.66784,4.66784 0 0 1 -6.2811,-2.2772 154.81912,154.81912 0 0 1 -16.3782,-29.96006 2.01884,2.01884 0 0 1 0.8922,-3.18318 l 52.8556,-30.36919 c 3.786,-2.17535 7.6143,-4.382 10.758,-7.41244 a 26.70785,26.70785 0 0 0 5.5233,-7.68946 c 1.0956,-2.28839 1.1978,-7.68865 2.5972,-9.38012 1.3702,-1.65609 6.0574,-1.78825 8.2222,-2.43962 a 74.60686,74.60686 0 0 0 8.951,-3.38364 c 11.8234,-5.2894 22.352,-12.97463 33.6863,-19.168 a 86.43316,86.43316 0 0 1 20.2164,-8.36865 z" />
  <path
     id="path1036"
     opacity="0.1"
     d="m 1342.7369,822.05067 c -9.0808,6.82029 -20.8388,13.0897 -29.8388,20.0897 -3.0716,2.389 -54.276,31.17666 -55,35 8.3965,1.41476 61.883,-36.00308 69.5356,-39.73678 7.6525,-3.7337 14.4363,-8.999 21.1584,-14.22547 1.7131,-1.33192 8.9731,-5.33589 4.0554,-6.824 -2.7703,-0.83827 -7.8654,4.33307 -9.9106,5.69655 z" />
  <polygon
     transform="translate(731.89813,218.94423)"
     id="polygon1038"
     fill="#2f2e41"
     points="490,323.628 503.268,323.117 510.969,293.277 515.782,325.043 562.95,324.08 561.025,286.538 520.595,265.361 464.764,274.024 453.212,325.043 481.967,323.937 490,305.193 " />
  <rect
     id="rect1040"
     fill="#3f3d56"
     height="105"
     width="87"
     y="610.14038"
     x="1196.8981" />
  <path
     id="path1042"
     fill="#ffb8b8"
     d="m 1155.5967,792.76294 c 1.9975,2.98208 4.338,5.899 7.5466,7.50773 a 14.7585,14.7585 0 0 0 12.973,-0.3477 22.835,22.835 0 0 0 9.3621,-9.38655 c 4.3939,-7.759 5.3039,-17.04346 4.7556,-25.94335 -0.5483,-8.89989 -2.4486,-17.66346 -3.2897,-26.54046 -0.6114,-6.453 -0.6611,-12.94443 -0.7103,-19.42612 a 6.46016,6.46016 0 0 1 0.8163,-3.92869 c 0.9733,-1.329 2.7552,-1.69518 4.3342,-2.16433 8.8679,-2.63479 14.7541,-10.94673 18.9742,-19.17917 2.8178,-5.497 5.2681,-11.506 4.7248,-17.65927 -0.5434,-6.15327 -4.9663,-12.3521 -11.1115,-12.97981 -5.0663,-0.51751 -9.7443,2.70035 -13.3988,6.2471 a 57.45477,57.45477 0 0 0 -16.8227,33.62021 c -0.8022,6.25647 -0.5724,12.6832 -2.2741,18.757 -3.6335,12.96874 -15.002,20.91995 -20.6673,32.5895 -6.2427,12.85858 -2.7972,27.45668 4.7876,38.83391 z" />
  <path
     id="path1044"
     fill="#ffb8b8"
     d="m 1322.89,743.21699 a 24.50892,24.50892 0 0 1 -13.7444,13.20664 18.98254,18.98254 0 0 1 -11.9483,0.73178 13.2493,13.2493 0 0 1 -8.7528,-7.829 21.0904,21.0904 0 0 1 -0.986,-5.88065 c -0.5685,-8.74559 -0.3488,-17.75765 2.8279,-25.92569 1.2252,-3.15042 2.8773,-6.1382 3.8443,-9.37724 a 47.02819,47.02819 0 0 0 1.4475,-11.44411 l 1.0443,-23.86232 a 15.52993,15.52993 0 0 0 -0.3545,-5.17407 c -1.0416,-3.45274 -4.2685,-5.69655 -7.2294,-7.75561 -7.1507,-4.97275 -14.217,-10.77542 -17.6819,-18.7663 a 13.16185,13.16185 0 0 1 -1.2218,-7.77332 c 0.977,-4.73839 5.7589,-7.806 10.4853,-8.83943 a 23.45383,23.45383 0 0 1 28.118,18.89993 c 0.4676,2.69291 0.4612,5.44363 0.7349,8.1631 0.5805,5.76865 2.4119,11.32931 3.5575,17.0128 2.822,13.99961 1.3597,28.47117 4.1504,42.4684 2.3333,11.70325 11.1315,19.33973 5.709,32.14509 z" />
  <path
     id="path1046"
     fill="#2f2e41"
     d="m 784.52899,889.1599 -2,-0.0391 a 463.83471,463.83471 0 0 1 7.09961,-66.28711 c 8.64844,-46.88086 23.0293,-77.66992 42.74316,-91.51172 l 1.14844,1.63672 c -46.05176,32.33402 -48.96777,154.96586 -48.99121,156.20121 z" />
  <path
     id="path1048"
     fill="#2f2e41"
     d="m 809.52899,888.68139 -2,-0.0391 c 0.043,-2.21484 1.293,-54.41406 21.84277,-68.84179 l 1.14844,1.63672 c -19.7207,13.8457 -20.98144,66.71191 -20.99121,67.24414 z" />
  <circle
     id="circle1050"
     fill="#6c63ff"
     r="10"
     cy="723.14038"
     cx="844.89813" />
  <circle
     id="circle1052"
     fill="#6c63ff"
     r="10"
     cy="809.14038"
     cx="839.94598" />
  <path
     id="path1054"
     fill="#2f2e41"
     d="m 804.86776,739.13498 c 1.87935,12.004 -3.01891,22.74063 -3.01891,22.74063 0,0 -7.94529,-8.72581 -9.82464,-20.72984 -1.87935,-12.00403 3.0189,-22.74063 3.0189,-22.74063 0,0 7.94529,8.7258 9.82465,20.72984 z" />
  <path
     id="path1056"
     fill="#2f2e41"
     d="m 837.55493,768.28873 c -11.493,3.9422 -22.91878,0.98962 -22.91878,0.98962 0,0 7.20793,-9.34414 18.70088,-13.28634 11.49295,-3.9422 22.91879,-0.98962 22.91879,-0.98962 0,0 -7.20794,9.34414 -18.70089,13.28634 z" />
  <path
     id="path1058"
     fill="#2f2e41"
     d="m 837.92418,844.44987 a 31.134,31.134 0 0 1 -16.06421,0.69365 28.37377,28.37377 0 0 1 29.172,-10.0063 31.134,31.134 0 0 1 -13.10779,9.31265 z" />
</svg>
