<?xml version="1.0" encoding="UTF-8" standalone="no"?>
<svg
   xmlns:dc="http://purl.org/dc/elements/1.1/"
   xmlns:cc="http://creativecommons.org/ns#"
   xmlns:rdf="http://www.w3.org/1999/02/22-rdf-syntax-ns#"
   xmlns:svg="http://www.w3.org/2000/svg"
   xmlns="http://www.w3.org/2000/svg"
   xmlns:sodipodi="http://sodipodi.sourceforge.net/DTD/sodipodi-0.dtd"
   xmlns:inkscape="http://www.inkscape.org/namespaces/inkscape"
   inkscape:version="1.0 (4035a4fb49, 2020-05-01)"
   sodipodi:docname="flip.svg"
   id="svg4"
   version="1.1"
   viewBox="0 0 25.367 19.82"
   height="19.82"
   width="25.367">
  <metadata
     id="metadata10">
    <rdf:RDF>
      <cc:Work
         rdf:about="">
        <dc:format>image/svg+xml</dc:format>
        <dc:type
           rdf:resource="http://purl.org/dc/dcmitype/StillImage" />
      </cc:Work>
    </rdf:RDF>
  </metadata>
  <defs
     id="defs8" />
  <sodipodi:namedview
     inkscape:current-layer="svg4"
     inkscape:window-maximized="1"
     inkscape:window-y="-9"
     inkscape:window-x="-9"
     inkscape:cy="16.242138"
     inkscape:cx="1.239209"
     inkscape:zoom="11.313709"
     showgrid="false"
     id="namedview6"
     inkscape:window-height="1001"
     inkscape:window-width="1920"
     inkscape:pageshadow="2"
     inkscape:pageopacity="0"
     guidetolerance="10"
     gridtolerance="10"
     objecttolerance="10"
     borderopacity="1"
     bordercolor="#666666"
     pagecolor="#ffffff" />
  <path
     transform="translate(0 -3.936)"
     id="path2"
     fill="#efefef"
     d="M0,9.486V8.693A1.189,1.189,0,0,1,1.189,7.5H19.025V5.126a1.19,1.19,0,0,1,2.03-.841l3.964,3.964a1.189,1.189,0,0,1,0,1.682l-3.964,3.964a1.19,1.19,0,0,1-2.03-.841V10.675H1.189A1.189,1.189,0,0,1,0,9.486Zm24.178,7.531H6.342V14.639a1.19,1.19,0,0,0-2.03-.841L.348,17.761a1.189,1.189,0,0,0,0,1.682l3.964,3.964a1.19,1.19,0,0,0,2.03-.841V20.188H24.178A1.189,1.189,0,0,0,25.367,19v-.793A1.189,1.189,0,0,0,24.178,17.017Z" />
</svg>
