<svg xmlns="http://www.w3.org/2000/svg" width="25.367" height="19.82" viewBox="0 0 25.367 19.82"><path d="M0,9.486V8.693A1.189,1.189,0,0,1,1.189,7.5H19.025V5.126a1.19,1.19,0,0,1,2.03-.841l3.964,3.964a1.189,1.189,0,0,1,0,1.682l-3.964,3.964a1.19,1.19,0,0,1-2.03-.841V10.675H1.189A1.189,1.189,0,0,1,0,9.486Zm24.178,7.531H6.342V14.639a1.19,1.19,0,0,0-2.03-.841L.348,17.761a1.189,1.189,0,0,0,0,1.682l3.964,3.964a1.19,1.19,0,0,0,2.03-.841V20.188H24.178A1.189,1.189,0,0,0,25.367,19v-.793A1.189,1.189,0,0,0,24.178,17.017Z" transform="translate(0 -3.936)" fill="#efefef"/></svg>