<?xml version="1.0" encoding="UTF-8" standalone="no"?>
<svg
   xmlns:dc="http://purl.org/dc/elements/1.1/"
   xmlns:cc="http://creativecommons.org/ns#"
   xmlns:rdf="http://www.w3.org/1999/02/22-rdf-syntax-ns#"
   xmlns:svg="http://www.w3.org/2000/svg"
   xmlns="http://www.w3.org/2000/svg"
   xmlns:sodipodi="http://sodipodi.sourceforge.net/DTD/sodipodi-0.dtd"
   xmlns:inkscape="http://www.inkscape.org/namespaces/inkscape"
   inkscape:version="1.0 (4035a4fb49, 2020-05-01)"
   sodipodi:docname="flip.svg"
   id="svg4"
   version="1.1"
   viewBox="0 0 25.367 19.82"
   height="19.82"
   width="25.367">
  <metadata
     id="metadata10">
    <rdf:RDF>
      <cc:Work
         rdf:about="">
        <dc:format>image/svg+xml</dc:format>
        <dc:type
           rdf:resource="http://purl.org/dc/dcmitype/StillImage" />
      </cc:Work>
    </rdf:RDF>
  </metadata>
  <defs
     id="defs8" />
  <sodipodi:namedview
     inkscape:current-layer="svg4"
     inkscape:window-maximized="1"
     inkscape:window-y="-9"
     inkscape:window-x="-9"
     inkscape:cy="11.347956"
     inkscape:cx="4.490102"
     inkscape:zoom="22.627417"
     showgrid="false"
     id="namedview6"
     inkscape:window-height="1001"
     inkscape:window-width="1920"
     inkscape:pageshadow="2"
     inkscape:pageopacity="0"
     guidetolerance="10"
     gridtolerance="10"
     objecttolerance="10"
     borderopacity="1"
     bordercolor="#666666"
     pagecolor="#ffffff" />
  <path
     sodipodi:nodetypes="sccccccccccsscccsccccccccc"
     style="stroke-width:1"
     id="path2"
     fill="#efefef"
     d="M 3.2812717,5.4184152 V 4.8305675 C 3.2796302,4.3426256 3.674728,3.9461986 4.1626727,3.9462013 H 17.384429 V 2.1863645 c 0.0013,-0.7844868 0.949156,-1.1771871 1.504831,-0.62343 l 2.938497,2.9384975 c 0.344456,0.3442509 0.344456,0.9026092 0,1.24686 L 18.88926,8.6867895 c -0.555675,0.5537572 -1.503572,0.1610569 -1.504831,-0.62343 V 6.2998162 H 4.1626727 c -0.4867843,0 -0.881401,-0.3946166 -0.881401,-0.881401 z M 21.204327,13.409699 H 7.9825712 V 11.646897 C 7.9813122,10.86241 7.0325269,10.46882 6.4777402,11.023466 l -2.9384975,2.937757 c -0.3444557,0.344251 -0.3444557,0.902609 0,1.24686 l 2.9384975,2.938497 c 0.5556745,0.553757 1.5035719,0.161057 1.504831,-0.62343 V 15.760348 H 21.204327 c 0.486495,0 0.880991,-0.394164 0.881401,-0.880659 v -0.587848 c 4.09e-4,-0.487074 -0.394327,-0.882142 -0.881401,-0.882142 z" />
</svg>
