<svg xmlns:dc="http://purl.org/dc/elements/1.1/" xmlns:cc="http://creativecommons.org/ns#"
  xmlns:rdf="http://www.w3.org/1999/02/22-rdf-syntax-ns#" xmlns:svg="http://www.w3.org/2000/svg"
          xmlns="http://www.w3.org/2000/svg" xmlns:sodipodi="http://sodipodi.sourceforge.net/DTD/sodipodi-0.dtd"
          xmlns:inkscape="http://www.inkscape.org/namespaces/inkscape" sodipodi:docname="loading.svg"
          inkscape:version="1.0 (4035a4fb49, 2020-05-01)" id="svg8" version="1.1" viewBox="0 0 67.042938 66.715309"
          height="66.715309mm" width="67.042938mm">
          <defs id="defs2" />
          <sodipodi:namedview showguides="false" inkscape:window-maximized="0" inkscape:window-y="0"
            inkscape:window-x="952" inkscape:window-height="991" inkscape:window-width="958" showgrid="false"
            inkscape:document-rotation="0" inkscape:current-layer="layer1" inkscape:document-units="mm"
            inkscape:cy="219.48546" inkscape:cx="169.24133" inkscape:zoom="0.98994949" inkscape:pageshadow="2"
            inkscape:pageopacity="0.0" borderopacity="1.0" bordercolor="#666666" pagecolor="#ffffff" id="base" />
          <metadata id="metadata5">
            <rdf:RDF>
              <cc:Work rdf:about="">
                <dc:format>image/svg+xml</dc:format>
                <dc:type rdf:resource="http://purl.org/dc/dcmitype/StillImage" />
                <dc:title></dc:title>
              </cc:Work>
            </rdf:RDF>
          </metadata>
          <g transform="translate(-3.8964028,-2.6933757)" id="layer1" inkscape:groupmode="layer"
            inkscape:label="Layer 1">
            <path transform="scale(0.26458333)"
              d="m 141.42188,10.179688 c -20.34017,0 -39.56846,4.820408 -56.615239,13.367187 l 3.697265,4.878906 A 121.21832,121.21832 0 0 1 141.63086,16.162109 121.21832,121.21832 0 0 1 202.9668,32.828125 l 3.80078,-4.439453 C 187.69197,16.835163 165.33073,10.179687 141.42188,10.179688 Z M 61.289062,38.800781 c -28.405461,23.2489 -46.562498,58.57078 -46.5625,98.074219 0,27.34274 8.696954,52.68383 23.470704,73.4043 l 4.003906,-3.5625 A 121.21832,121.21832 0 0 1 20.412109,137.38086 121.21832,121.21832 0 0 1 64.888672,43.548828 Z m 167.677738,6.648438 -3.63672,4.248047 a 121.21832,121.21832 0 0 1 37.51953,87.683594 121.21832,121.21832 0 0 1 -103.75,119.95117 v 5 c 61.0256,-8.55996 108.12053,-60.76834 108.87109,-123.9668 6e-5,-0.005 -6e-5,-0.009 0,-0.0137 a 7.4999995,7.4999995 0 0 0 0.14649,-1.47656 7.4999995,7.4999995 0 0 0 -0.14649,-1.47656 C 267.55531,100.08558 252.66572,68.206761 228.9668,45.449219 Z"
              style="
									color: #000000;
									font-style: normal;
									font-variant: normal;
									font-weight: normal;
									font-stretch: normal;
									font-size: medium;
									line-height: normal;
									font-family: sans-serif;
									font-variant-ligatures: normal;
									font-variant-position: normal;
									font-variant-caps: normal;
									font-variant-numeric: normal;
									font-variant-alternates: normal;
									font-variant-east-asian: normal;
									font-feature-settings: normal;
									font-variation-settings: normal;
									text-indent: 0;
									text-align: start;
									text-decoration: none;
									text-decoration-line: none;
									text-decoration-style: solid;
									text-decoration-color: #000000;
									letter-spacing: normal;
									word-spacing: normal;
									text-transform: none;
									writing-mode: lr-tb;
									direction: ltr;
									text-orientation: mixed;
									dominant-baseline: auto;
									baseline-shift: baseline;
									text-anchor: start;
									white-space: normal;
									shape-padding: 0;
									shape-margin: 0;
									inline-size: 0;
									clip-rule: nonzero;
									display: inline;
									overflow: visible;
									visibility: visible;
									opacity: 1;
									isolation: auto;
									mix-blend-mode: normal;
									color-interpolation: sRGB;
									color-interpolation-filters: linearRGB;
									solid-color: #000000;
									solid-opacity: 1;
									vector-effect: none;
									fill: #efefef;
									fill-opacity: 1;
									fill-rule: nonzero;
									stroke: none;
									stroke-width: 15.0009;
									stroke-linecap: round;
									stroke-linejoin: round;
									stroke-miterlimit: 4;
									stroke-dasharray: none;
									stroke-dashoffset: 0;
									stroke-opacity: 1;
									color-rendering: auto;
									image-rendering: auto;
									shape-rendering: auto;
									text-rendering: auto;
									enable-background: accumulate;
									stop-color: #000000;
									stop-opacity: 1;
								" id="path1475" />
          </g>
        </svg>
