<svg xmlns="http://www.w3.org/2000/svg" viewBox="0 0 67.043 66.715" height="252.152" width="253.391"><path transform="matrix(.26458 0 0 .26458 -3.896 -2.693)" d="M141.422 10.18c-20.34 0-39.569 4.82-56.615 13.367l3.697 4.879a121.218 121.218 0 0 1 53.127-12.264 121.218 121.218 0 0 1 61.336 16.666l3.8-4.44c-19.075-11.553-41.436-18.208-65.345-18.208zM61.289 38.8c-28.405 23.25-46.562 58.572-46.562 98.075 0 27.343 8.697 52.684 23.47 73.404l4.004-3.562a121.218 121.218 0 0 1-21.789-69.336A121.218 121.218 0 0 1 64.89 43.549zm167.678 6.65-3.637 4.247a121.218 121.218 0 0 1 37.52 87.684A121.218 121.218 0 0 1 159.1 257.332v5c61.025-8.56 108.12-60.768 108.87-123.967v-.013a7.5 7.5 0 0 0 .147-1.477 7.5 7.5 0 0 0-.146-1.477c-.416-35.312-15.305-67.191-39.004-89.949z" style="color:#000;font-style:normal;font-variant:normal;font-weight:400;font-stretch:normal;font-size:medium;line-height:normal;font-family:sans-serif;font-variant-ligatures:normal;font-variant-position:normal;font-variant-caps:normal;font-variant-numeric:normal;font-variant-alternates:normal;font-variant-east-asian:normal;font-feature-settings:normal;font-variation-settings:normal;text-indent:0;text-align:start;text-decoration:none;text-decoration-line:none;text-decoration-style:solid;text-decoration-color:#000;letter-spacing:normal;word-spacing:normal;text-transform:none;writing-mode:lr-tb;direction:ltr;text-orientation:mixed;dominant-baseline:auto;baseline-shift:baseline;text-anchor:start;white-space:normal;shape-padding:0;shape-margin:0;inline-size:0;clip-rule:nonzero;display:inline;overflow:visible;visibility:visible;opacity:1;isolation:auto;mix-blend-mode:normal;color-interpolation:sRGB;color-interpolation-filters:linearRGB;solid-color:#000;solid-opacity:1;vector-effect:none;fill:#efefef;fill-opacity:1;fill-rule:nonzero;stroke:none;stroke-width:15.0009;stroke-linecap:round;stroke-linejoin:round;stroke-miterlimit:4;stroke-dasharray:none;stroke-dashoffset:0;stroke-opacity:1;color-rendering:auto;image-rendering:auto;shape-rendering:auto;text-rendering:auto;enable-background:accumulate;stop-color:#000;stop-opacity:1"/></svg>
