<svg width="487.604" height="487.604" viewBox="0 0 129.012 129.012" xmlns="http://www.w3.org/2000/svg"><defs><path id="a" d="M-10.78 14.701h117.064v118.133H-10.78z"/></defs><g style="font-style:normal;font-variant:normal;font-weight:400;font-stretch:normal;font-size:42.3333px;line-height:1.25;font-family:'Palatino Linotype';-inkscape-font-specification:'Palatino Linotype';letter-spacing:0;word-spacing:0;white-space:pre;shape-inside:url(#a);fill:#efefef;fill-opacity:1;stroke:none;stroke-width:.424521;stroke-miterlimit:4;stroke-dasharray:none"><path d="M-9.56 21.28c3.473.11 5.685.165 6.636.165 1.295 0 2.749-.035 4.361-.104a144.32 144.32 0 0 1 3.163-.083c1.929 0 3.52.2 4.774.6a6.303 6.303 0 0 1 3.142 2.191c.827 1.061 1.24 2.343 1.24 3.845 0 1.24-.289 2.439-.868 3.596a8.635 8.635 0 0 1-2.418 2.956c-1.033.813-2.08 1.399-3.142 1.757a10.642 10.642 0 0 1-3.307.517c-.855 0-1.805-.096-2.853-.29l-.351-1.26.186-.207c1.033.234 1.874.351 2.522.351 1.805 0 3.252-.592 4.34-1.777 1.103-1.2 1.654-2.729 1.654-4.59 0-1.873-.572-3.368-1.715-4.485-1.13-1.116-2.846-1.674-5.147-1.674-1.254 0-2.632.234-4.135.703-.124 1.061-.186 3.624-.186 7.69v9.57l.021 4.03c.014 1.558.055 21.619.124 22.073.069.455.165.758.29.91.137.151.392.282.764.393.372.096 1.289.172 2.75.227l.165.124v1.033l-.166.166c-3.513-.11-5.491-.166-5.932-.166-.468 0-2.44.056-5.912.166l-.165-.166v-1.033l.165-.124c1.282-.055 2.136-.124 2.563-.207.428-.082.71-.186.848-.31.151-.138.269-.42.351-.847.097-.428.152-20.433.166-21.908l.02-4.361v-9.57l-.041-4.031c-.014-1.571-.055-2.584-.124-3.039-.055-.455-.152-.758-.29-.91-.123-.151-.371-.275-.744-.372-.372-.096-1.288-.172-2.749-.227l-.165-.145v-1.033z" style="font-style:normal;font-variant:normal;font-weight:400;font-stretch:normal;font-size:42.3333px;font-family:'Palatino Linotype';-inkscape-font-specification:'Palatino Linotype';fill:#efefef;fill-opacity:1;stroke-width:.42452;stroke-miterlimit:4;stroke-dasharray:none" aria-label="P" transform="matrix(2.3556 0 0 2.3556 70.972 -41.318)"/></g><g style="fill:#efefef;fill-opacity:1;stroke-width:.966227;stroke-miterlimit:4;stroke-dasharray:none"><g style="font-style:normal;font-weight:400;font-size:128.375px;line-height:1.25;font-family:sans-serif;letter-spacing:0;word-spacing:0;fill:#efefef;fill-opacity:1;stroke:none;stroke-width:.966227;stroke-miterlimit:4;stroke-dasharray:none" aria-label="x"><path style="font-style:normal;font-variant:normal;font-weight:400;font-stretch:normal;font-size:128.375px;font-family:'Palatino Linotype';-inkscape-font-specification:'Palatino Linotype';fill:#efefef;fill-opacity:1;stroke-width:.966227;stroke-miterlimit:4;stroke-dasharray:none" d="m-49.582 122.902-.502-.564v-2.507l.564-.502c1.547-.041 2.8-.271 3.761-.69 1.003-.459 2.194-1.378 3.573-2.757 1.421-1.421 3.908-4.304 7.46-8.65l10.092-12.474s7.008-8.658 10.656-13.29c3.05-3.97 7.334-9.924 12.85-17.864 1.964.293 3.531.439 4.701.439 1.087 0 2.55-.146 4.388-.439l.501.502v2.507l-.501.501c-1.38.126-2.382.335-3.009.627-.627.293-1.776 1.254-3.448 2.884-1.671 1.63-3.907 4.137-6.707 7.522l-3.76 4.513a68.495 68.495 0 0 0-2.194 2.695l-3.887 5.015-6.77 8.4c-4.304 4.889-10.07 12.933-17.3 24.132-2.842-.292-4.534-.438-5.077-.438-.836 0-2.633.146-5.391.438z" transform="matrix(1.27233 0 0 .84187 89.174 .47)"/><path d="m8.274 122.902.507-.564v-2.507l-.57-.502c-1.563-.041-2.83-.271-3.802-.69-1.014-.459-2.218-1.378-3.612-2.757-1.436-1.421-3.95-4.304-7.54-8.65l-10.202-12.474s-7.085-8.658-10.773-13.29c-3.083-3.97-7.413-9.924-12.99-17.864-1.985.293-3.569.439-4.752.439-1.098 0-2.577-.146-4.435-.439l-.507.502v2.507l.507.501c1.394.126 2.408.335 3.041.627.634.293 1.796 1.254 3.485 2.884 1.69 1.63 3.95 4.137 6.78 7.522l3.802 4.513c.76.877 1.5 1.776 2.218 2.695l3.929 5.015 6.843 8.4c4.351 4.889 10.18 12.933 17.489 24.132 2.873-.292 4.583-.438 5.133-.438.844 0 2.66.146 5.449.438z" style="font-style:normal;font-variant:normal;font-weight:400;font-stretch:normal;font-size:128.375px;font-family:'Palatino Linotype';-inkscape-font-specification:'Palatino Linotype';fill:#efefef;fill-opacity:1;stroke-width:.966227;stroke-miterlimit:4;stroke-dasharray:none" transform="matrix(1.27233 0 0 .84187 89.174 .47)"/></g></g></svg>
