<svg version="1" xmlns="http://www.w3.org/2000/svg" width="1333.333" height="1333.333" viewBox="0 0 1000.000000 1000.000000"><path d="M601.5 71.1c-98.6 3.2-101 3.2-199.8.3-29.1-.9-27.7-1.5-27.7 11.7 0 12.7-.4 12.5 19.7 13.3 38 1.6 48.5 5.4 51.2 18.8 3.1 15 3.3 26.9 3.8 234.7.4 174.7.2 210.3-.9 209.5-24.5-18.7-72.4-61.3-138.9-123.5l-16.7-15.5-8.3.9c-11.1 1.3-64.3 1.3-74.2.1-6.8-.9-8.1-.8-10.7.8-2.9 1.7-3 1.9-3 10.1 0 8 .1 8.3 2.7 9.9 1.6.9 6 1.9 9.8 2.3 16.8 1.6 23.5 3.4 35.3 9.6 14.7 7.7 35.3 21.3 57.7 38.1 29.6 22.2 83.5 64.8 107 84.7 12.1 10.2 25.9 21.8 30.7 25.6l8.8 7-.3 8-.2 7.9-39.5 32.4C267.9 772.6 256 780.4 216.8 782.6c-8.6.5-12.1 1.1-14.5 2.6-3.3 1.9-3.3 2-3.3 9.7 0 7 .3 8 2.5 10.1l2.5 2.3 19.2-1.1c24.5-1.5 42.4-1.5 66.3 0l18.9 1.2 16.1-16.6c31.6-32.6 79.1-77.9 110.5-105.3l12.5-10.9.3 34.9c.1 19.3-.2 71-.7 115-1 85.7-1 86.4-6.2 93.6-3.8 5.4-16.4 8.1-44.9 9.9-9.6.6-18.5 1.6-19.7 2.2-2.2 1.1-2.3 1.8-2.3 10.8 0 8.1.3 10 1.8 11.3 1.7 1.6 5.4 1.6 51.3.1 49.9-1.6 77.3-1.5 137.8.7 34.5 1.2 32.1 2.1 32.1-12.2 0-8.3-.3-10-1.7-10.8-1-.5-10.1-1.4-20.3-2-25.1-1.6-31.4-2.6-38.6-6.1-6.4-3.1-7.8-4.9-10.4-13.5-1.3-4.2-3.3-157.6-2.8-212.2l.3-26.2 13.5 11.6c32.3 27.6 60.1 53.6 102.3 95.2l30.7 30.4 19.3-1.1c24.4-1.5 42.3-1.5 66 0 18.3 1.1 18.8 1.1 21.5-.9 2.5-1.9 2.7-2.6 3-10l.3-8.1-3.4-2.1c-2.5-1.5-5.1-2.1-9.3-2.1-16.2 0-30.9-3.2-44.9-9.9-23.2-11-44.3-26.8-147.8-110.5-61.7-49.9-57.7-44.4-41.9-57.2 5.3-4.3 20.5-17.1 33.7-28.4 25.3-21.6 80.6-65.9 108.5-86.9 20.4-15.3 41.6-29.4 55.2-36.5 10.7-5.7 17.9-7.6 34.3-9.1 10.8-1 11.5-1.8 11.5-12.3 0-8.5-.1-8.8-2.7-10.3-2.1-1.1-4.2-1.3-8.8-.8-13.2 1.7-52.9 2-68 .7l-15-1.4-18 17.1c-54.1 51.2-93.2 86.6-123 111.4l-17 14.2-.6-22.3c-.4-12.3-.7-95.4-.8-184.8-.1-148.5.7-218 2.7-237.5l.7-7 12-3.3c6.6-1.8 18.5-4.5 26.5-5.9 12.8-2.3 17.2-2.6 37-2.7 24.2 0 33.8 1.1 50.9 6 30.4 8.8 53.5 29.6 64.9 58.4 9.6 24.2 10.7 58.8 2.7 86.3-8.8 30.5-30.6 55.9-57.8 67.4-13.4 5.6-22.3 7.4-40.2 8-16.3.6-28.1-.6-44.4-4.3-6.2-1.4-6.6-1.4-8.5.6-2.2 2.2-2.1 3.2 2.9 20.3l1.5 5.4 11.1 1.6c47.8 7.3 86.5 2.7 121.7-14.5 57.8-28.1 94.3-79.8 96.9-137.3 1.6-35.1-9.2-64.1-32.7-87.5-24.5-24.5-55.6-35.6-110-39-17.8-1.1-23.4-1.1-58.5.1z"/></svg>